<?xml version="1.0" encoding="UTF-8"?>
<svg width="750" height="600" version="1.1" viewBox="0 0 750 600" xml:space="preserve" xmlns="http://www.w3.org/2000/svg"><path d="m0 50c0-27.614 22.385-50 50-50h650c27.614 0 50 22.386 50 50v500c0 27.615-22.386 50-50 50h-650c-27.615 0-50-22.385-50-50v-500z"/><path d="m375 300"/><path d="m375 10.002c-36.328 22.464-79.149 35.429-125 35.429s-88.673-12.967-125-35.431l-115 115c21.163 30.081 33.588 66.752 33.588 106.33 0 28.56-6.4712 55.608-18.028 79.758-9.9751 20.869-15.56 44.24-15.56 68.914 0 88.367 71.633 160 160 160h100.12c42.343 0 80.133 19.494 104.88 49.998 24.751-30.504 62.541-49.998 104.88-49.998h100.12c88.367 0 160-71.633 160-160 0-24.674-5.585-48.045-15.561-68.914-11.557-24.15-18.027-51.198-18.027-79.758 0-39.575 12.425-76.247 33.588-106.33l-115-115c-36.327 22.464-79.149 35.431-125 35.431s-88.673-12.965-125-35.429z" fill="#fff" fill-rule="evenodd"/><g transform="translate(37.94)"><path d="m102.1 137.6h38.7v299.9h-48.15v-243.7h-23.83v-36.8q13.04-2.7 19.34-6.3 6.74-4.1 13.94-13.1z" stroke-width=".99951"/><path d="m312.1 137.6 26.5 37.4q-28.8 22.9-44.9 43.6-15.8 20.2-26.1 46.3 15.3-5.9 30.1-5.9 42.7 0 71.9 27 29.2 26.5 29.2 65.6 0 38.2-29.2 65.2-28.7 26.5-70.6 26.5-25.6 0-49.9-11.6-23.8-12.2-36.4-31.5-15.3-22.5-15.3-54.9 0-30.1 10.8-64.7 11.3-35.1 30.6-66.1 30.1-49 73.3-76.9zm-14 168.6q-21.1 0-36.4 13.1-15.3 13-15.3 31 0 18.4 15.8 32.4 15.7 13.9 36.8 13.9 20.7 0 36.5-13.5 15.7-13.9 15.7-31.5 0-17-16.6-31-16.2-14.4-36.5-14.4z" stroke-width=".99951"/><path d="m524.2 187.5h34.2l66.9 200h-33l-19.2-56.4h-63.5l-19.3 56.4h-32.9zm-3.8 111.8h41.6l-21-61.8z" stroke-width=".99952"/></g>
</svg>
